<svg id="图层_1" data-name="图层 1" xmlns="http://www.w3.org/2000/svg" viewBox="0 0 1000 899.55"><defs><style>.cls-1{fill:#e1f5fe;}.cls-2{fill:#42a5f5;}.cls-3{fill:#90caf9;}.cls-4{fill:#fff;}.cls-5{fill:#bbdefb;}.cls-6{fill:#ffb74d;}.cls-7{fill:#607d8b;}</style></defs><path class="cls-1" d="M761.47,598.86H36.66a15,15,0,0,1-15-15V87a15,15,0,0,1,15-15H761.47a15,15,0,0,1,15,15V584a15,15,0,0,1-15,14.84Z" transform="translate(0 -50.23)"/><path class="cls-2" d="M763.34,620.55H34.79A34.8,34.8,0,0,1,0,585.76V85A34.8,34.8,0,0,1,34.79,50.23H763.34A34.8,34.8,0,0,1,798.13,85V585.76a34.8,34.8,0,0,1-34.79,34.79ZM43.52,577.16H754.74V93.74H43.52Z" transform="translate(0 -50.23)"/><path class="cls-2" d="M573.57,746h-339V702.6H381.67V617.31h43.52V702.6H573.57Z" transform="translate(0 -50.23)"/><path class="cls-3" d="M380.55,265.69H171.82V222.17H380.55ZM658,195.49H171.82V152.1H658Z" transform="translate(0 -50.23)"/><path class="cls-2" d="M795.76,407s27.43-78.55-74.56-117.83C619.08,251.85,566.08,332.4,566.08,332.4c-35.28-33.42-84.41-19.58-84.41-19.58-62.84,17.71-51,78.55-51,78.55-31.42-9.85-123.69,2-123.69,98.13s78.56,113.84,78.56,113.84H794s74.57-9.85,74.57-94.26C870.45,422.67,795.76,407,795.76,407Z" transform="translate(0 -50.23)"/><path class="cls-4" d="M753.74,418.93s22-62.72-59.48-94c-81.42-29.8-123.81,34.41-123.81,34.41-28.18-26.68-67.33-15.71-67.33-15.71-50.25,14.21-40.78,62.84-40.78,62.84-25.06-7.85-98.75,1.62-98.75,78.31s62.72,90.89,62.72,90.89H752.24s59.48-7.85,59.48-75.18c1.5-69-58-81.55-58-81.55Z" transform="translate(0 -50.23)"/><path class="cls-5" d="M521,710.2c0,132.29,107.19,239.55,239.47,239.58S1000,842.59,1000,710.31v-.11c0-132.28-107.19-239.55-239.47-239.58S521,577.81,521,710.1Z" transform="translate(0 -50.23)"/><path class="cls-6" d="M681.8,626.41a81.8,81.8,0,1,0,81.79-81.79A81.84,81.84,0,0,0,681.8,626.41Z" transform="translate(0 -50.23)"/><path class="cls-7" d="M895.51,825.66S859,715.31,762.84,715.31,630.17,825.66,630.17,825.66v60.6H895.51v-60.6Z" transform="translate(0 -50.23)"/><path class="cls-4" d="M790.27,751.23a10.07,10.07,0,0,0,.38-8.48,30.33,30.33,0,0,0-4.86-8.48,92.82,92.82,0,0,0-7.86-8.86,21.36,21.36,0,0,1-4.24-.87,32.82,32.82,0,0,0-21.57-.12,21.36,21.36,0,0,1-4.24.87,69.25,69.25,0,0,0-7.23,8.85,31.35,31.35,0,0,0-4.24,7.48,7.93,7.93,0,0,0,.37,7.49c3,6.35,5.74,12,7.86,16.7A39.74,39.74,0,0,0,751.87,777c-.87,4.11-2.12,9.85-4,17.33s-3.37,15.21-4.86,23.19-2.87,15.46-4,22.57a127.59,127.59,0,0,0-1.62,16c0,2.24,1,5,3,8.23a108.48,108.48,0,0,0,6.86,9.85,49,49,0,0,0,8.23,8.48c2.86,2.24,5.36,3.36,7.48,3.36s4.74-1.12,7.85-3.36a65.1,65.1,0,0,0,8.86-7.86,48.92,48.92,0,0,0,7.23-9.6c2-3.37,3-6.23,3-8.48,0-2.74-.62-7.36-2-14s-2.74-14-4.23-22.2-3.12-16.21-4.87-23.94-3.24-13.84-4.61-18.45a36.35,36.35,0,0,0,7.48-9.85c2.24-4,5.11-9.85,8.6-17.08Z" transform="translate(0 -50.23)"/></svg>